<svg width="40" height="40" viewBox="0 0 40 40" fill="none" xmlns="http://www.w3.org/2000/svg">
<path d="M20.0001 13.7501C20.0001 10.3126 22.8907 7.4532 26.3282 7.50008C27.5321 7.51398 28.7063 7.87526 29.7097 8.54051C30.7131 9.20576 31.503 10.1466 31.9845 11.2501H37.5001L32.4532 16.297C32.1275 21.3666 29.8834 26.1219 26.177 29.5961C22.4706 33.0703 17.5802 35.0026 12.5001 35.0001C7.50011 35.0001 6.25011 33.1251 6.25011 33.1251C6.25011 33.1251 11.2501 31.2501 13.7501 27.5001C13.7501 27.5001 3.75011 22.5001 6.25011 8.75008C6.25011 8.75008 12.5001 15.0001 20.0001 16.2501V13.7501Z" stroke="white" stroke-width="2" stroke-linecap="round" stroke-linejoin="round"/>
</svg>
