<svg width="63" height="62" viewBox="0 0 63 62" fill="none" xmlns="http://www.w3.org/2000/svg">
<path d="M26.8079 7.63114C28.813 4.23189 33.7427 4.26824 35.6974 7.6967L38.5369 12.6769C39.6767 14.6762 42.0069 15.6737 44.2403 15.1185L47.6695 14.266C51.5326 13.3057 54.9734 16.9132 53.8314 20.7265L52.304 25.8272C51.7405 27.7091 52.2993 29.7476 53.7436 31.0791L55.6501 32.8366C58.649 35.6012 57.386 40.5901 53.4328 41.5946L49.116 42.6915C46.838 43.2703 45.2431 45.3211 45.2431 47.6715V50.0896C45.2431 54.4441 40.1661 56.8246 36.8186 54.0397L34.5954 52.1901C32.6911 50.6058 29.9274 50.6058 28.023 52.1901L25.2462 54.5003C21.9966 57.2038 17.0545 55.0456 16.829 50.8244L16.593 46.4084C16.4669 44.0488 14.7477 42.0793 12.4267 41.6357L10.8089 41.3265C6.52432 40.5075 5.14479 35.059 8.52345 32.2997L9.79946 31.2577C11.5197 29.8528 12.1426 27.5018 11.3436 25.4295L9.77598 21.3634C8.27579 17.4724 11.7912 13.5092 15.8335 14.5344L18.1052 15.1105C20.3175 15.6716 22.6346 14.7062 23.7942 12.7405L26.8079 7.63114Z" fill="#4FD690"/>
</svg>
